<svg width="1051" height="955" viewBox="0 0 1051 955" fill="none" xmlns="http://www.w3.org/2000/svg">
<path d="M737.343 465.973C695.333 492.946 607.384 454.713 568.66 432.225C536.151 444.877 473.959 478.415 485.259 511.348C499.384 552.516 652.758 566.424 692.666 567.585C724.593 568.514 802.658 642.892 837.7 679.965L932.54 592.217C884.978 538.897 779.353 439.001 737.343 465.973Z" fill="white" stroke="black" stroke-width="3"/>
<path d="M546.253 746.505C553.749 697.148 482.974 632.434 446.65 606.247C444.945 571.405 450.206 500.942 484.885 497.83C528.234 493.939 603.478 628.309 620.813 664.275C634.68 693.047 734.428 733.996 782.569 750.873L741.123 873.253C673.042 851.569 538.756 795.862 546.253 746.505Z" fill="white" stroke="black" stroke-width="3"/>
<path d="M231.052 401.469L337.392 271.058C345.419 261.214 359.907 259.741 369.752 267.768L587.073 444.977L451.663 611.038L234.342 433.83C224.497 425.802 223.024 411.314 231.052 401.469Z" fill="white" stroke="black" stroke-width="4"/>
<rect x="94.6075" y="357.082" width="38.6549" height="76.1443" rx="9.5" transform="rotate(-50.8055 94.6075 357.082)" fill="white" stroke="black" stroke-width="3"/>
<rect x="244.129" y="173.715" width="38.6549" height="76.1443" rx="9.5" transform="rotate(-50.8055 244.129 173.715)" fill="white" stroke="black" stroke-width="3"/>
<circle cx="207.19" cy="273.988" r="118.883" transform="rotate(-50.8055 207.19 273.988)" fill="white" stroke="black" stroke-width="3"/>
<path d="M282.318 181.853C322.997 215.023 322.939 283.244 281.246 334.375C239.553 385.506 172.74 399.293 132.061 366.122C91.3824 332.952 91.4403 264.731 133.134 213.601C174.827 162.47 241.639 148.683 282.318 181.853Z" fill="white" stroke="black" stroke-width="3"/>
<path d="M284.578 183.696C300.999 197.086 307.759 219.454 305.124 245.072C302.491 270.676 290.474 299.329 269.625 324.898C248.775 350.467 223.127 368.005 198.577 375.737C174.013 383.474 150.742 381.355 134.321 367.965C117.901 354.576 111.141 332.207 113.776 306.589C116.409 280.985 128.426 252.332 149.275 226.763C170.125 201.194 195.773 183.656 220.323 175.924C244.887 168.187 268.158 170.306 284.578 183.696Z" fill="#1B202F" stroke="black" stroke-width="3"/>
<ellipse cx="373.386" cy="408.97" rx="83.3098" ry="34.5736" transform="rotate(-50.8055 373.386 408.97)" fill="#8F2E2E"/>
<mask id="path-10-outside-1_79_41" maskUnits="userSpaceOnUse" x="321.88" y="351.825" width="105.571" height="116.729" fill="black">
<rect fill="white" x="321.88" y="351.825" width="105.571" height="116.729"/>
<path d="M329.223 439.018L355.293 446.922L342.336 422.937L345.464 419.101L371.814 440.587L369.128 443.881L357.852 434.686L348.047 425.981L360.214 448.483L357.623 451.661L333.182 444.053L343.759 451.969L355.036 461.164L352.35 464.457L326 442.971L329.223 439.018ZM380.305 424.795C381.632 423.167 382.305 421.63 382.323 420.183C382.316 418.715 381.628 417.422 380.259 416.306C379.122 415.379 377.914 414.909 376.633 414.898C375.374 414.86 373.979 415.357 372.449 416.389L368.96 418.769C366.765 420.248 364.694 420.968 362.747 420.929C360.774 420.869 358.91 420.123 357.153 418.691C355.81 417.595 354.806 416.347 354.143 414.945C353.5 413.518 353.33 411.96 353.632 410.271C353.955 408.556 354.896 406.742 356.455 404.831C357.403 403.668 358.524 402.583 359.82 401.575C361.089 400.545 362.537 399.64 364.163 398.859L366.185 402.313C364.631 403.111 363.327 403.919 362.273 404.737C361.215 405.508 360.317 406.345 359.579 407.25C358.379 408.722 357.751 410.124 357.697 411.457C357.638 412.742 358.306 413.953 359.701 415.091C360.709 415.912 361.782 416.336 362.922 416.363C364.036 416.368 365.382 415.852 366.958 414.815L370.448 412.435C374.812 409.456 378.919 409.536 382.768 412.675C384.99 414.486 386.251 416.632 386.55 419.113C386.824 421.573 385.75 424.288 383.327 427.259C382.337 428.473 381.142 429.649 379.741 430.787C378.336 431.877 376.72 432.883 374.895 433.803L372.88 430.418C374.617 429.554 376.057 428.686 377.2 427.811C378.364 426.911 379.399 425.905 380.305 424.795ZM371.404 387.288L397.475 395.192L384.517 371.207L387.646 367.371L413.996 388.857L411.31 392.151L400.034 382.956L390.229 374.251L402.396 396.753L399.805 399.931L375.363 392.323L385.941 400.239L397.217 409.434L394.532 412.727L368.181 391.241L371.404 387.288ZM423.478 377.228L420.729 380.599L394.379 359.113L397.128 355.742L423.478 377.228Z"/>
</mask>
<path d="M329.223 439.018L355.293 446.922L342.336 422.937L345.464 419.101L371.814 440.587L369.128 443.881L357.852 434.686L348.047 425.981L360.214 448.483L357.623 451.661L333.182 444.053L343.759 451.969L355.036 461.164L352.35 464.457L326 442.971L329.223 439.018ZM380.305 424.795C381.632 423.167 382.305 421.63 382.323 420.183C382.316 418.715 381.628 417.422 380.259 416.306C379.122 415.379 377.914 414.909 376.633 414.898C375.374 414.86 373.979 415.357 372.449 416.389L368.96 418.769C366.765 420.248 364.694 420.968 362.747 420.929C360.774 420.869 358.91 420.123 357.153 418.691C355.81 417.595 354.806 416.347 354.143 414.945C353.5 413.518 353.33 411.96 353.632 410.271C353.955 408.556 354.896 406.742 356.455 404.831C357.403 403.668 358.524 402.583 359.82 401.575C361.089 400.545 362.537 399.64 364.163 398.859L366.185 402.313C364.631 403.111 363.327 403.919 362.273 404.737C361.215 405.508 360.317 406.345 359.579 407.25C358.379 408.722 357.751 410.124 357.697 411.457C357.638 412.742 358.306 413.953 359.701 415.091C360.709 415.912 361.782 416.336 362.922 416.363C364.036 416.368 365.382 415.852 366.958 414.815L370.448 412.435C374.812 409.456 378.919 409.536 382.768 412.675C384.99 414.486 386.251 416.632 386.55 419.113C386.824 421.573 385.75 424.288 383.327 427.259C382.337 428.473 381.142 429.649 379.741 430.787C378.336 431.877 376.72 432.883 374.895 433.803L372.88 430.418C374.617 429.554 376.057 428.686 377.2 427.811C378.364 426.911 379.399 425.905 380.305 424.795ZM371.404 387.288L397.475 395.192L384.517 371.207L387.646 367.371L413.996 388.857L411.31 392.151L400.034 382.956L390.229 374.251L402.396 396.753L399.805 399.931L375.363 392.323L385.941 400.239L397.217 409.434L394.532 412.727L368.181 391.241L371.404 387.288ZM423.478 377.228L420.729 380.599L394.379 359.113L397.128 355.742L423.478 377.228Z" fill="white"/>
<path d="M329.223 439.018L329.803 437.104L328.52 436.715L327.673 437.755L329.223 439.018ZM355.293 446.922L354.713 448.836L359.362 450.246L357.053 445.972L355.293 446.922ZM342.336 422.937L340.786 421.673L339.94 422.71L340.576 423.888L342.336 422.937ZM345.464 419.101L346.728 417.551L345.178 416.287L343.914 417.837L345.464 419.101ZM371.814 440.587L373.364 441.851L374.628 440.301L373.078 439.037L371.814 440.587ZM369.128 443.881L367.864 445.431L369.414 446.695L370.678 445.145L369.128 443.881ZM357.852 434.686L356.524 436.182L356.555 436.21L356.588 436.236L357.852 434.686ZM348.047 425.981L349.375 424.486L346.288 426.933L348.047 425.981ZM360.214 448.483L361.764 449.747L362.61 448.71L361.973 447.532L360.214 448.483ZM357.623 451.661L357.029 453.57L358.319 453.972L359.173 452.925L357.623 451.661ZM333.182 444.053L333.776 442.144L331.983 445.654L333.182 444.053ZM343.759 451.969L345.023 450.419L344.991 450.392L344.958 450.367L343.759 451.969ZM355.036 461.164L356.586 462.428L357.85 460.878L356.3 459.614L355.036 461.164ZM352.35 464.457L351.086 466.007L352.636 467.271L353.9 465.721L352.35 464.457ZM326 442.971L324.45 441.707L323.186 443.257L324.736 444.521L326 442.971ZM328.642 440.932L354.713 448.836L355.874 445.008L329.803 437.104L328.642 440.932ZM357.053 445.972L344.095 421.986L340.576 423.888L353.534 447.873L357.053 445.972ZM343.886 424.201L347.014 420.365L343.914 417.837L340.786 421.673L343.886 424.201ZM344.2 420.651L370.55 442.137L373.078 439.037L346.728 417.551L344.2 420.651ZM370.264 439.323L367.578 442.617L370.678 445.145L373.364 441.851L370.264 439.323ZM370.392 442.331L359.116 433.136L356.588 436.236L367.864 445.431L370.392 442.331ZM359.18 433.19L349.375 424.486L346.719 427.477L356.524 436.182L359.18 433.19ZM346.288 426.933L358.455 449.435L361.973 447.532L349.806 425.03L346.288 426.933ZM358.664 447.219L356.073 450.397L359.173 452.925L361.764 449.747L358.664 447.219ZM358.218 449.751L333.776 442.144L332.587 445.963L357.029 453.57L358.218 449.751ZM331.983 445.654L342.561 453.57L344.958 450.367L334.38 442.452L331.983 445.654ZM342.495 453.519L353.772 462.714L356.3 459.614L345.023 450.419L342.495 453.519ZM353.486 459.9L350.8 463.194L353.9 465.721L356.586 462.428L353.486 459.9ZM353.614 462.907L327.264 441.421L324.736 444.521L351.086 466.007L353.614 462.907ZM327.55 444.235L330.773 440.282L327.673 437.755L324.45 441.707L327.55 444.235ZM382.323 420.183L384.323 420.209L384.323 420.191L384.323 420.173L382.323 420.183ZM376.633 414.898L376.573 416.897L376.594 416.897L376.614 416.897L376.633 414.898ZM372.449 416.389L371.331 414.731L371.322 414.737L372.449 416.389ZM368.96 418.769L370.077 420.428L370.087 420.422L368.96 418.769ZM362.747 420.929L362.686 422.928L362.697 422.929L362.707 422.929L362.747 420.929ZM354.143 414.945L352.319 415.766L352.327 415.784L352.335 415.801L354.143 414.945ZM353.632 410.271L351.666 409.9L351.665 409.91L351.663 409.919L353.632 410.271ZM359.82 401.575L361.048 403.153L361.064 403.141L361.079 403.128L359.82 401.575ZM364.163 398.859L365.89 397.848L364.959 396.258L363.297 397.056L364.163 398.859ZM366.185 402.313L367.098 404.093L368.978 403.127L367.911 401.303L366.185 402.313ZM362.273 404.737L363.451 406.353L363.475 406.336L363.499 406.317L362.273 404.737ZM357.697 411.457L359.695 411.548L359.695 411.538L357.697 411.457ZM362.922 416.363L362.876 418.362L362.895 418.363L362.913 418.363L362.922 416.363ZM366.958 414.815L368.057 416.486L368.072 416.477L368.086 416.467L366.958 414.815ZM370.448 412.435L371.575 414.087L371.575 414.087L370.448 412.435ZM386.55 419.113L388.538 418.892L388.537 418.883L388.536 418.873L386.55 419.113ZM379.741 430.787L380.967 432.367L380.985 432.353L381.002 432.339L379.741 430.787ZM374.895 433.803L373.176 434.825L374.13 436.428L375.795 435.589L374.895 433.803ZM372.88 430.418L371.99 428.627L370.059 429.588L371.162 431.441L372.88 430.418ZM377.2 427.811L378.415 429.4L378.423 429.393L377.2 427.811ZM381.855 426.059C383.342 424.234 384.297 422.272 384.323 420.209L380.324 420.157C380.313 420.988 379.921 422.1 378.755 423.531L381.855 426.059ZM384.323 420.173C384.313 417.985 383.251 416.165 381.523 414.756L378.995 417.856C380.005 418.679 380.32 419.444 380.323 420.192L384.323 420.173ZM381.523 414.756C380.088 413.586 378.451 412.914 376.652 412.898L376.614 416.897C377.376 416.905 378.157 417.172 378.995 417.856L381.523 414.756ZM376.693 412.898C374.861 412.843 373.054 413.569 371.331 414.731L373.568 418.047C374.904 417.145 375.886 416.876 376.573 416.897L376.693 412.898ZM371.322 414.737L367.833 417.117L370.087 420.422L373.576 418.041L371.322 414.737ZM367.842 417.111C365.868 418.44 364.198 418.958 362.787 418.93L362.707 422.929C365.19 422.979 367.661 422.056 370.077 420.428L367.842 417.111ZM362.808 418.93C361.338 418.885 359.886 418.338 358.417 417.141L355.889 420.241C357.934 421.908 360.21 422.853 362.686 422.928L362.808 418.93ZM358.417 417.141C357.277 416.211 356.472 415.192 355.95 414.089L352.335 415.801C353.14 417.502 354.343 418.979 355.889 420.241L358.417 417.141ZM355.966 414.124C355.505 413.1 355.362 411.955 355.601 410.623L351.663 409.919C351.297 411.965 351.495 413.936 352.319 415.766L355.966 414.124ZM355.597 410.641C355.838 409.362 356.575 407.849 358.005 406.095L354.905 403.567C353.217 405.636 352.072 407.75 351.666 409.9L355.597 410.641ZM358.005 406.095C358.849 405.059 359.86 404.077 361.048 403.153L358.591 399.996C357.188 401.088 355.956 402.278 354.905 403.567L358.005 406.095ZM361.079 403.128C362.216 402.206 363.529 401.382 365.029 400.661L363.297 397.056C361.545 397.898 359.962 398.884 358.56 400.021L361.079 403.128ZM362.437 399.869L364.459 403.323L367.911 401.303L365.89 397.848L362.437 399.869ZM365.271 400.534C363.639 401.372 362.224 402.244 361.047 403.157L363.499 406.317C364.431 405.594 365.623 404.85 367.098 404.093L365.271 400.534ZM361.096 403.12C359.915 403.98 358.887 404.933 358.029 405.986L361.129 408.513C361.746 407.758 362.514 407.036 363.451 406.353L361.096 403.12ZM358.029 405.986C356.668 407.655 355.776 409.461 355.699 411.376L359.695 411.538C359.726 410.787 360.089 409.789 361.129 408.513L358.029 405.986ZM355.699 411.365C355.601 413.511 356.761 415.274 358.437 416.641L360.965 413.541C359.852 412.633 359.675 411.973 359.695 411.548L355.699 411.365ZM358.437 416.641C359.739 417.702 361.231 418.324 362.876 418.362L362.968 414.363C362.334 414.349 361.679 414.123 360.965 413.541L358.437 416.641ZM362.913 418.363C364.609 418.371 366.355 417.605 368.057 416.486L365.859 413.144C364.408 414.098 363.464 414.365 362.932 414.363L362.913 418.363ZM368.086 416.467L371.575 414.087L369.321 410.782L365.831 413.163L368.086 416.467ZM371.575 414.087C373.513 412.764 375.229 412.23 376.762 412.26C378.281 412.29 379.852 412.877 381.504 414.225L384.032 411.125C381.836 409.334 379.428 408.311 376.84 408.261C374.266 408.211 371.748 409.126 369.32 410.783L371.575 414.087ZM381.504 414.225C383.389 415.761 384.336 417.462 384.565 419.353L388.536 418.873C388.165 415.803 386.591 413.211 384.032 411.125L381.504 414.225ZM384.562 419.335C384.751 421.03 384.042 423.217 381.777 425.995L384.877 428.523C387.457 425.36 388.897 422.117 388.538 418.892L384.562 419.335ZM381.777 425.995C380.885 427.089 379.791 428.17 378.48 429.234L381.002 432.339C382.493 431.128 383.789 429.858 384.877 428.523L381.777 425.995ZM378.515 429.207C377.225 430.208 375.722 431.146 373.995 432.017L375.795 435.589C377.719 434.619 379.446 433.547 380.967 432.367L378.515 429.207ZM376.613 432.78L374.599 429.395L371.162 431.441L373.176 434.825L376.613 432.78ZM373.771 432.209C375.585 431.307 377.142 430.373 378.415 429.4L375.985 426.223C374.971 426.998 373.649 427.802 371.99 428.627L373.771 432.209ZM378.423 429.393C379.705 428.402 380.85 427.291 381.855 426.059L378.755 423.531C377.948 424.52 377.023 425.42 375.976 426.229L378.423 429.393ZM371.404 387.288L371.985 385.374L370.702 384.985L369.854 386.024L371.404 387.288ZM397.475 395.192L396.895 397.106L401.544 398.516L399.235 394.242L397.475 395.192ZM384.517 371.207L382.967 369.943L382.122 370.98L382.758 372.158L384.517 371.207ZM387.646 367.371L388.91 365.821L387.36 364.557L386.096 366.107L387.646 367.371ZM413.996 388.857L415.546 390.121L416.81 388.571L415.26 387.307L413.996 388.857ZM411.31 392.151L410.046 393.701L411.596 394.965L412.86 393.415L411.31 392.151ZM400.034 382.956L398.706 384.452L398.737 384.48L398.77 384.506L400.034 382.956ZM390.229 374.251L391.557 372.756L388.469 375.202L390.229 374.251ZM402.396 396.753L403.946 398.017L404.792 396.98L404.155 395.802L402.396 396.753ZM399.805 399.931L399.211 401.84L400.501 402.242L401.355 401.195L399.805 399.931ZM375.363 392.323L375.958 390.413L374.165 393.924L375.363 392.323ZM385.941 400.239L387.205 398.689L387.173 398.662L387.139 398.637L385.941 400.239ZM397.217 409.434L398.767 410.698L400.031 409.147L398.481 407.884L397.217 409.434ZM394.532 412.727L393.268 414.277L394.818 415.541L396.082 413.991L394.532 412.727ZM368.181 391.241L366.631 389.977L365.368 391.527L366.918 392.791L368.181 391.241ZM370.824 389.202L396.895 397.106L398.056 393.278L371.985 385.374L370.824 389.202ZM399.235 394.242L386.277 370.256L382.758 372.158L395.716 396.143L399.235 394.242ZM386.067 372.471L389.196 368.635L386.096 366.107L382.967 369.943L386.067 372.471ZM386.382 368.921L412.732 390.407L415.26 387.307L388.91 365.821L386.382 368.921ZM412.446 387.593L409.76 390.887L412.86 393.415L415.546 390.121L412.446 387.593ZM412.574 390.601L401.298 381.406L398.77 384.506L410.046 393.701L412.574 390.601ZM401.362 381.46L391.557 372.756L388.901 375.747L398.706 384.452L401.362 381.46ZM388.469 375.202L400.637 397.704L404.155 395.802L391.988 373.3L388.469 375.202ZM400.846 395.489L398.255 398.667L401.355 401.195L403.946 398.017L400.846 395.489ZM400.399 398.021L375.958 390.413L374.769 394.233L399.211 401.84L400.399 398.021ZM374.165 393.924L384.743 401.84L387.139 398.637L376.562 390.722L374.165 393.924ZM384.677 401.789L395.953 410.984L398.481 407.884L387.205 398.689L384.677 401.789ZM395.667 408.17L392.982 411.463L396.082 413.991L398.767 410.698L395.667 408.17ZM395.796 411.177L369.445 389.691L366.918 392.791L393.268 414.277L395.796 411.177ZM369.731 392.505L372.954 388.552L369.854 386.024L366.631 389.977L369.731 392.505ZM423.478 377.228L425.028 378.492L426.292 376.942L424.742 375.678L423.478 377.228ZM420.729 380.599L419.465 382.149L421.015 383.413L422.279 381.863L420.729 380.599ZM394.379 359.113L392.829 357.849L391.565 359.399L393.115 360.663L394.379 359.113ZM397.128 355.742L398.392 354.192L396.842 352.928L395.578 354.478L397.128 355.742ZM421.928 375.964L419.179 379.336L422.279 381.863L425.028 378.492L421.928 375.964ZM421.993 379.049L395.643 357.563L393.115 360.663L419.465 382.149L421.993 379.049ZM395.929 360.377L398.678 357.006L395.578 354.478L392.829 357.849L395.929 360.377ZM395.864 357.292L422.214 378.778L424.742 375.678L398.392 354.192L395.864 357.292Z" fill="#1D2334" mask="url(#path-10-outside-1_79_41)"/>
<g filter="url(#filter0_f_79_41)">
<ellipse cx="217.129" cy="205.771" rx="22.9102" ry="12.4965" transform="rotate(-30.519 217.129 205.771)" fill="white"/>
</g>
<path d="M764.227 908.652C740.445 893.083 742.993 866.241 747.239 854.767L777.225 751.995L851.021 764.904L834.354 933.203C820.887 931.507 788.009 924.222 764.227 908.652Z" fill="#1B202F" stroke="black" stroke-width="4"/>
<path d="M986.206 585.962C961.599 571.732 938.776 586.087 930.44 595.044L852.161 668.075L896.901 728.165L1039.69 637.536C1032.12 626.274 1010.81 600.192 986.206 585.962Z" fill="#1B202F" stroke="black" stroke-width="4"/>
<path d="M199.864 533.593C188.041 496.397 216.457 447.761 232.143 428.093L302.479 486.018C295.91 499.354 284.576 536.602 291.784 578.904C298.993 621.206 228.301 728.123 192.054 776.293L118.737 718.025C175.724 717.036 214.643 580.089 199.864 533.593Z" fill="white" stroke="black" stroke-width="3"/>
<path d="M467.809 212.795C429.156 207.387 385.984 243.569 369.23 262.336L438.146 321.943C450.19 313.228 485.005 295.797 527.917 295.798C570.829 295.799 664.351 208.152 705.749 164.329L635.993 101.841C644.591 158.185 516.127 219.554 467.809 212.795Z" fill="white" stroke="black" stroke-width="3"/>
<path d="M67.3892 662.833C78.1928 656.427 112.349 696.362 128.077 717.131L191.231 776.242C183.548 791.967 158.138 819.743 117.955 805.05C77.7715 790.358 93.5584 751.743 106.475 734.273C88.9447 713.129 56.5855 669.24 67.3892 662.833Z" fill="#8F2E2E" stroke="black" stroke-width="3"/>
<path d="M583.298 51.61C577.393 62.6954 618.849 94.9891 640.315 109.75L702.254 170.133C717.61 161.74 744.195 135.085 727.679 95.6163C711.164 56.1473 673.312 73.6842 656.451 87.3863C634.527 70.8419 589.204 40.5246 583.298 51.61Z" fill="#8F2E2E" stroke="black" stroke-width="3"/>
<defs>
<filter id="filter0_f_79_41" x="181.392" y="174.92" width="71.4741" height="61.7017" filterUnits="userSpaceOnUse" color-interpolation-filters="sRGB">
<feFlood flood-opacity="0" result="BackgroundImageFix"/>
<feBlend mode="normal" in="SourceGraphic" in2="BackgroundImageFix" result="shape"/>
<feGaussianBlur stdDeviation="7.5" result="effect1_foregroundBlur_79_41"/>
</filter>
</defs>
</svg>
