<svg width="1939" height="1080" viewBox="0 0 1939 1080" fill="none" xmlns="http://www.w3.org/2000/svg">
<g clip-path="url(#clip0_42_10)">
<rect width="1939" height="1080" fill="white"/>
<rect x="-31" width="1970" height="1080" fill="url(#paint0_linear_42_10)"/>
<path d="M20.7758 793.23L247.279 821.451C260.158 823.055 269.298 834.797 267.694 847.676L234.817 1111.55L-38.3259 1077.52L-5.4493 813.645C-3.84469 800.766 7.89671 791.626 20.7758 793.23Z" fill="white" stroke="black" stroke-width="3"/>
<path d="M50.6759 782.348L217.657 803.152C230.262 804.722 239.207 816.214 237.637 828.819L202.968 1107.08L-9.66 1080.59L25.0088 802.328C26.5793 789.723 38.0708 780.777 50.6759 782.348Z" fill="white" stroke="black" stroke-width="4"/>
<rect x="15.7901" y="643.171" width="38.6549" height="76.1443" rx="9.5" transform="rotate(7.10191 15.7901 643.171)" fill="white" stroke="black" stroke-width="3"/>
<rect x="250.575" y="672.423" width="38.6549" height="76.1443" rx="9.5" transform="rotate(7.10191 250.575 672.423)" fill="white" stroke="black" stroke-width="3"/>
<circle cx="145.999" cy="694.402" r="118.883" transform="rotate(7.10191 145.999 694.402)" fill="white" stroke="black" stroke-width="3"/>
<path d="M263.97 709.101C257.481 761.186 199.655 797.382 134.186 789.225C68.7171 781.069 21.5399 731.79 28.0293 679.705C34.5187 627.619 92.3452 591.423 157.814 599.58C223.283 607.737 270.46 657.015 263.97 709.101Z" fill="white" stroke="black" stroke-width="3"/>
<path d="M263.61 711.994C260.99 733.019 245.632 750.63 222.528 762.009C199.437 773.381 168.779 778.424 136.04 774.345C103.301 770.266 74.8166 757.854 55.2225 741.164C35.6171 724.464 25.0491 703.623 27.6686 682.598C30.2881 661.573 45.6468 643.962 68.7506 632.583C91.841 621.211 122.5 616.168 155.239 620.247C187.978 624.326 216.462 636.738 236.056 653.428C255.661 670.128 266.229 690.969 263.61 711.994Z" fill="#1B202F" stroke="black" stroke-width="3"/>
<ellipse cx="119.942" cy="906.917" rx="83.3098" ry="34.5736" transform="rotate(7.10191 119.942 906.917)" fill="#8F2E2E"/>
<mask id="path-10-outside-1_42_10" maskUnits="userSpaceOnUse" x="58.5694" y="881.508" width="122.04" height="54.282" fill="black">
<rect fill="white" x="58.5694" y="881.508" width="122.04" height="54.282"/>
<path d="M71.0221 885.466L78.1771 911.753L91.6129 888.032L96.5249 888.644L92.3213 922.383L88.1039 921.858L89.9028 907.419L92.0682 894.488L79.4691 916.751L75.4005 916.244L68.8601 891.495L67.7739 904.662L65.975 919.101L61.7576 918.575L65.9612 884.836L71.0221 885.466ZM110.212 921.186C112.296 921.445 113.955 921.199 115.191 920.446C116.431 919.66 117.161 918.39 117.379 916.637C117.56 915.182 117.316 913.908 116.646 912.817C116.009 911.73 114.846 910.812 113.159 910.065L109.289 908.373C106.87 907.299 105.159 905.927 104.158 904.257C103.161 902.554 102.803 900.578 103.083 898.329C103.297 896.609 103.822 895.096 104.656 893.789C105.524 892.486 106.754 891.514 108.345 890.872C109.97 890.235 112.006 890.069 114.454 890.374C115.942 890.559 117.458 890.933 119 891.494C120.547 892.023 122.083 892.769 123.609 893.731L121.756 897.28C120.255 896.387 118.878 895.712 117.625 895.253C116.409 894.766 115.222 894.45 114.065 894.306C112.179 894.071 110.658 894.284 109.5 894.946C108.38 895.579 107.709 896.789 107.486 898.575C107.326 899.865 107.537 901 108.12 901.98C108.708 902.926 109.859 903.792 111.576 904.577L115.446 906.268C120.289 908.383 122.403 911.905 121.789 916.834C121.434 919.678 120.286 921.887 118.343 923.458C116.405 924.997 113.533 925.53 109.73 925.056C108.175 924.862 106.544 924.474 104.836 923.892C103.165 923.281 101.455 922.446 99.706 921.388L101.503 917.884C103.157 918.896 104.658 919.654 106.007 920.158C107.388 920.666 108.789 921.009 110.212 921.186ZM137.258 893.719L144.413 920.005L157.849 896.284L162.761 896.896L158.557 930.635L154.34 930.11L156.139 915.672L158.304 902.74L145.705 925.003L141.636 924.496L135.096 899.748L134.01 912.915L132.211 927.353L127.994 926.827L132.197 893.088L137.258 893.719ZM173.447 932.491L169.131 931.953L173.334 898.214L177.651 898.751L173.447 932.491Z"/>
</mask>
<path d="M71.0221 885.466L78.1771 911.753L91.6129 888.032L96.5249 888.644L92.3213 922.383L88.1039 921.858L89.9028 907.419L92.0682 894.488L79.4691 916.751L75.4005 916.244L68.8601 891.495L67.7739 904.662L65.975 919.101L61.7576 918.575L65.9612 884.836L71.0221 885.466ZM110.212 921.186C112.296 921.445 113.955 921.199 115.191 920.446C116.431 919.66 117.161 918.39 117.379 916.637C117.56 915.182 117.316 913.908 116.646 912.817C116.009 911.73 114.846 910.812 113.159 910.065L109.289 908.373C106.87 907.299 105.159 905.927 104.158 904.257C103.161 902.554 102.803 900.578 103.083 898.329C103.297 896.609 103.822 895.096 104.656 893.789C105.524 892.486 106.754 891.514 108.345 890.872C109.97 890.235 112.006 890.069 114.454 890.374C115.942 890.559 117.458 890.933 119 891.494C120.547 892.023 122.083 892.769 123.609 893.731L121.756 897.28C120.255 896.387 118.878 895.712 117.625 895.253C116.409 894.766 115.222 894.45 114.065 894.306C112.179 894.071 110.658 894.284 109.5 894.946C108.38 895.579 107.709 896.789 107.486 898.575C107.326 899.865 107.537 901 108.12 901.98C108.708 902.926 109.859 903.792 111.576 904.577L115.446 906.268C120.289 908.383 122.403 911.905 121.789 916.834C121.434 919.678 120.286 921.887 118.343 923.458C116.405 924.997 113.533 925.53 109.73 925.056C108.175 924.862 106.544 924.474 104.836 923.892C103.165 923.281 101.455 922.446 99.706 921.388L101.503 917.884C103.157 918.896 104.658 919.654 106.007 920.158C107.388 920.666 108.789 921.009 110.212 921.186ZM137.258 893.719L144.413 920.005L157.849 896.284L162.761 896.896L158.557 930.635L154.34 930.11L156.139 915.672L158.304 902.74L145.705 925.003L141.636 924.496L135.096 899.748L134.01 912.915L132.211 927.353L127.994 926.827L132.197 893.088L137.258 893.719ZM173.447 932.491L169.131 931.953L173.334 898.214L177.651 898.751L173.447 932.491Z" fill="white"/>
<path d="M71.0221 885.466L72.9519 884.941L72.5998 883.648L71.2694 883.482L71.0221 885.466ZM78.1771 911.753L76.2473 912.278L77.5232 916.965L79.9173 912.738L78.1771 911.753ZM91.6129 888.032L91.8602 886.047L90.5322 885.882L89.8727 887.046L91.6129 888.032ZM96.5249 888.644L98.5096 888.891L98.7568 886.907L96.7722 886.659L96.5249 888.644ZM92.3213 922.383L92.0741 924.368L94.0587 924.615L94.306 922.63L92.3213 922.383ZM88.1039 921.858L86.1193 921.61L85.872 923.595L87.8567 923.842L88.1039 921.858ZM89.9028 907.419L87.9303 907.089L87.9234 907.13L87.9182 907.172L89.9028 907.419ZM92.0682 894.488L94.0408 894.818L90.3276 893.503L92.0682 894.488ZM79.4691 916.751L79.2218 918.736L80.5503 918.901L81.2097 917.736L79.4691 916.751ZM75.4005 916.244L73.4669 916.755L73.8122 918.062L75.1533 918.229L75.4005 916.244ZM68.8601 891.495L70.7937 890.984L66.8669 891.331L68.8601 891.495ZM67.7739 904.662L69.7586 904.909L69.7637 904.868L69.7671 904.827L67.7739 904.662ZM65.975 919.101L65.7278 921.085L67.7124 921.332L67.9597 919.348L65.975 919.101ZM61.7576 918.575L59.773 918.328L59.5257 920.312L61.5104 920.56L61.7576 918.575ZM65.9612 884.836L66.2085 882.851L64.2238 882.604L63.9766 884.589L65.9612 884.836ZM69.0923 885.992L76.2473 912.278L80.1069 911.227L72.9519 884.941L69.0923 885.992ZM79.9173 912.738L93.3531 889.018L89.8727 887.046L76.4369 910.767L79.9173 912.738ZM91.3656 890.017L96.2777 890.629L96.7722 886.659L91.8602 886.047L91.3656 890.017ZM94.5403 888.397L90.3367 922.136L94.306 922.63L98.5096 888.891L94.5403 888.397ZM92.5686 920.398L88.3512 919.873L87.8567 923.842L92.0741 924.368L92.5686 920.398ZM90.0886 922.105L91.8875 907.667L87.9182 907.172L86.1193 921.61L90.0886 922.105ZM91.8754 907.75L94.0408 894.818L90.0957 894.157L87.9303 907.089L91.8754 907.75ZM90.3276 893.503L77.7285 915.766L81.2097 917.736L93.8088 895.473L90.3276 893.503ZM79.7163 914.766L75.6478 914.259L75.1533 918.229L79.2218 918.736L79.7163 914.766ZM77.3341 915.733L70.7937 890.984L66.9265 892.006L73.4669 916.755L77.3341 915.733ZM66.8669 891.331L65.7807 904.498L69.7671 904.827L70.8533 891.66L66.8669 891.331ZM65.7893 904.415L63.9904 918.853L67.9597 919.348L69.7586 904.909L65.7893 904.415ZM66.2223 917.116L62.0049 916.59L61.5104 920.56L65.7278 921.085L66.2223 917.116ZM63.7423 918.822L67.9459 885.083L63.9766 884.589L59.773 918.328L63.7423 918.822ZM65.714 886.821L70.7748 887.451L71.2694 883.482L66.2085 882.851L65.714 886.821ZM115.191 920.446L116.232 922.154L116.247 922.144L116.262 922.135L115.191 920.446ZM116.646 912.817L114.92 913.828L114.931 913.846L114.942 913.864L116.646 912.817ZM113.159 910.065L113.97 908.236L113.96 908.232L113.159 910.065ZM109.289 908.373L108.477 910.201L108.488 910.206L109.289 908.373ZM104.158 904.257L102.432 905.268L102.438 905.277L102.443 905.286L104.158 904.257ZM104.656 893.789L102.992 892.68L102.981 892.696L102.971 892.712L104.656 893.789ZM108.345 890.872L107.615 889.011L107.606 889.014L107.597 889.017L108.345 890.872ZM119 891.494L118.316 893.374L118.334 893.381L118.353 893.387L119 891.494ZM123.609 893.731L125.382 894.657L126.235 893.023L124.676 892.04L123.609 893.731ZM121.756 897.28L120.734 898.999L122.55 900.079L123.529 898.205L121.756 897.28ZM117.625 895.253L116.881 897.11L116.909 897.121L116.938 897.132L117.625 895.253ZM109.5 894.946L110.484 896.688L110.493 896.683L109.5 894.946ZM108.12 901.98L106.402 903.003L106.411 903.019L106.421 903.034L108.12 901.98ZM111.576 904.577L110.744 906.396L110.759 906.403L110.775 906.41L111.576 904.577ZM115.446 906.268L114.645 908.101L114.646 908.101L115.446 906.268ZM118.343 923.458L119.587 925.025L119.594 925.019L119.601 925.013L118.343 923.458ZM104.836 923.892L104.149 925.77L104.169 925.778L104.19 925.785L104.836 923.892ZM99.706 921.388L97.9264 920.476L97.0756 922.135L98.6712 923.1L99.706 921.388ZM101.503 917.884L102.547 916.178L100.708 915.052L99.7235 916.971L101.503 917.884ZM106.007 920.158L105.306 922.031L105.316 922.035L106.007 920.158ZM109.964 923.17C112.301 923.461 114.47 923.227 116.232 922.154L114.151 918.738C113.441 919.17 112.291 919.429 110.459 919.201L109.964 923.17ZM116.262 922.135C118.11 920.963 119.088 919.097 119.364 916.884L115.394 916.39C115.233 917.683 114.753 918.356 114.121 918.757L116.262 922.135ZM119.364 916.884C119.593 915.047 119.292 913.304 118.35 911.77L114.942 913.864C115.34 914.513 115.528 915.316 115.394 916.39L119.364 916.884ZM118.371 911.806C117.444 910.224 115.87 909.078 113.97 908.236L112.349 911.893C113.823 912.547 114.573 913.235 114.92 913.828L118.371 911.806ZM113.96 908.232L110.09 906.541L108.488 910.206L112.358 911.897L113.96 908.232ZM110.1 906.545C107.925 905.58 106.599 904.439 105.874 903.229L102.443 905.286C103.72 907.416 105.814 909.019 108.477 910.201L110.1 906.545ZM105.884 903.247C105.141 901.978 104.833 900.457 105.068 898.576L101.098 898.082C100.772 900.7 101.181 903.131 102.432 905.268L105.884 903.247ZM105.068 898.576C105.249 897.116 105.685 895.893 106.342 894.865L102.971 892.712C101.958 894.298 101.345 896.102 101.098 898.082L105.068 898.576ZM106.321 894.897C106.944 893.962 107.838 893.233 109.093 892.727L107.597 889.017C105.67 889.794 104.104 891.01 102.992 892.68L106.321 894.897ZM109.076 892.734C110.288 892.259 111.961 892.079 114.206 892.358L114.701 888.389C112.051 888.059 109.652 888.211 107.615 889.011L109.076 892.734ZM114.206 892.358C115.532 892.524 116.901 892.859 118.316 893.374L119.684 889.615C118.014 889.007 116.352 888.595 114.701 888.389L114.206 892.358ZM118.353 893.387C119.738 893.86 121.134 894.535 122.542 895.423L124.676 892.04C123.032 891.003 121.355 890.186 119.647 889.602L118.353 893.387ZM121.836 892.806L119.983 896.354L123.529 898.205L125.382 894.657L121.836 892.806ZM122.778 895.56C121.201 894.623 119.71 893.887 118.312 893.375L116.938 897.132C118.045 897.537 119.309 898.151 120.734 898.999L122.778 895.56ZM118.369 893.397C117.013 892.853 115.659 892.489 114.312 892.321L113.817 896.291C114.785 896.411 115.805 896.679 116.881 897.11L118.369 893.397ZM114.312 892.321C112.174 892.055 110.17 892.259 108.507 893.21L110.493 896.683C111.145 896.31 112.184 896.087 113.817 896.291L114.312 892.321ZM108.516 893.205C106.646 894.262 105.769 896.181 105.502 898.328L109.471 898.823C109.648 897.397 110.114 896.897 110.484 896.688L108.516 893.205ZM105.502 898.328C105.294 899.994 105.56 901.589 106.402 903.003L109.839 900.957C109.514 900.412 109.357 899.736 109.471 898.823L105.502 898.328ZM106.421 903.034C107.315 904.475 108.891 905.548 110.744 906.396L112.407 902.758C110.828 902.036 110.1 901.377 109.819 900.925L106.421 903.034ZM110.775 906.41L114.645 908.101L116.247 904.436L112.376 902.744L110.775 906.41ZM114.646 908.101C116.795 909.04 118.16 910.211 118.949 911.525C119.731 912.828 120.068 914.47 119.804 916.586L123.773 917.081C124.124 914.269 123.711 911.686 122.378 909.467C121.053 907.259 118.94 905.612 116.247 904.436L114.646 908.101ZM119.804 916.586C119.503 918.999 118.566 920.706 117.085 921.904L119.601 925.013C122.006 923.068 123.365 920.357 123.773 917.081L119.804 916.586ZM117.1 921.892C115.764 922.952 113.534 923.514 109.977 923.071L109.482 927.04C113.533 927.545 117.046 927.042 119.587 925.025L117.1 921.892ZM109.977 923.071C108.576 922.897 107.079 922.544 105.481 921.999L104.19 925.785C106.008 926.405 107.774 926.828 109.482 927.04L109.977 923.071ZM105.523 922.014C103.99 921.453 102.396 920.678 100.741 919.677L98.6712 923.1C100.515 924.215 102.341 925.109 104.149 925.77L105.523 922.014ZM101.486 922.301L103.283 918.796L99.7235 916.971L97.9264 920.476L101.486 922.301ZM100.459 919.59C102.187 920.647 103.806 921.47 105.306 922.031L106.707 918.285C105.511 917.838 104.127 917.145 102.547 916.178L100.459 919.59ZM105.316 922.035C106.837 922.594 108.387 922.974 109.964 923.17L110.459 919.201C109.192 919.043 107.939 918.738 106.697 918.281L105.316 922.035ZM137.258 893.719L139.188 893.194L138.836 891.9L137.505 891.734L137.258 893.719ZM144.413 920.005L142.483 920.53L143.759 925.218L146.153 920.991L144.413 920.005ZM157.849 896.284L158.096 894.3L156.768 894.134L156.109 895.299L157.849 896.284ZM162.761 896.896L164.746 897.144L164.993 895.159L163.008 894.912L162.761 896.896ZM158.557 930.635L158.31 932.62L160.295 932.867L160.542 930.883L158.557 930.635ZM154.34 930.11L152.355 929.863L152.108 931.847L154.093 932.095L154.34 930.11ZM156.139 915.672L154.166 915.341L154.159 915.383L154.154 915.424L156.139 915.672ZM158.304 902.74L160.277 903.07L156.564 901.755L158.304 902.74ZM145.705 925.003L145.458 926.988L146.786 927.153L147.446 925.988L145.705 925.003ZM141.636 924.496L139.703 925.007L140.048 926.314L141.389 926.481L141.636 924.496ZM135.096 899.748L137.03 899.237L133.103 899.583L135.096 899.748ZM134.01 912.915L135.995 913.162L136 913.12L136.003 913.079L134.01 912.915ZM132.211 927.353L131.964 929.338L133.948 929.585L134.196 927.6L132.211 927.353ZM127.994 926.827L126.009 926.58L125.762 928.565L127.746 928.812L127.994 926.827ZM132.197 893.088L132.444 891.104L130.46 890.856L130.213 892.841L132.197 893.088ZM135.328 894.244L142.483 920.53L146.343 919.48L139.188 893.194L135.328 894.244ZM146.153 920.991L159.589 897.27L156.109 895.299L142.673 919.019L146.153 920.991ZM157.602 898.269L162.514 898.881L163.008 894.912L158.096 894.3L157.602 898.269ZM160.776 896.649L156.573 930.388L160.542 930.883L164.746 897.144L160.776 896.649ZM158.805 928.651L154.587 928.125L154.093 932.095L158.31 932.62L158.805 928.651ZM156.325 930.357L158.123 915.919L154.154 915.424L152.355 929.863L156.325 930.357ZM158.111 916.002L160.277 903.07L156.332 902.41L154.166 915.341L158.111 916.002ZM156.564 901.755L143.964 924.018L147.446 925.988L160.045 903.725L156.564 901.755ZM145.952 923.019L141.884 922.512L141.389 926.481L145.458 926.988L145.952 923.019ZM143.57 923.985L137.03 899.237L133.162 900.259L139.703 925.007L143.57 923.985ZM133.103 899.583L132.017 912.75L136.003 913.079L137.089 899.912L133.103 899.583ZM132.025 912.667L130.226 927.106L134.196 927.6L135.995 913.162L132.025 912.667ZM132.458 925.368L128.241 924.843L127.746 928.812L131.964 929.338L132.458 925.368ZM129.978 927.075L134.182 893.336L130.213 892.841L126.009 926.58L129.978 927.075ZM131.95 895.073L137.011 895.704L137.505 891.734L132.444 891.104L131.95 895.073ZM173.447 932.491L173.2 934.475L175.185 934.722L175.432 932.738L173.447 932.491ZM169.131 931.953L167.146 931.705L166.899 933.69L168.883 933.937L169.131 931.953ZM173.334 898.214L173.581 896.229L171.597 895.982L171.35 897.966L173.334 898.214ZM177.651 898.751L179.635 898.999L179.883 897.014L177.898 896.767L177.651 898.751ZM173.695 930.506L169.378 929.968L168.883 933.937L173.2 934.475L173.695 930.506ZM171.115 932.2L175.319 898.461L171.35 897.966L167.146 931.705L171.115 932.2ZM173.087 900.198L177.404 900.736L177.898 896.767L173.581 896.229L173.087 900.198ZM175.666 898.504L171.463 932.243L175.432 932.738L179.635 898.999L175.666 898.504Z" fill="#1D2334" mask="url(#path-10-outside-1_42_10)"/>
<g filter="url(#filter0_f_42_10)">
<ellipse cx="209.073" cy="666.58" rx="22.9102" ry="12.4965" transform="rotate(27.3884 209.073 666.58)" fill="white"/>
</g>
<path d="M1685.03 73.8555L2013.66 -63.4322L1817.83 234.051L1685.03 73.8555Z" fill="#404040" stroke="black" stroke-width="3"/>
<path d="M1790.27 128.42C1807.36 152.356 1817.84 177.488 1821.04 198.724C1824.25 220.051 1820.07 236.972 1808.52 245.215C1796.97 253.457 1779.6 251.912 1760.48 241.944C1741.44 232.019 1721.08 213.933 1703.99 189.997C1686.91 166.062 1676.43 140.929 1673.23 119.694C1670.02 98.367 1674.2 81.4457 1685.75 73.2031C1697.3 64.9605 1714.66 66.5054 1733.79 76.4735C1752.83 86.3987 1773.19 104.485 1790.27 128.42Z" fill="#1B202F" stroke="black" stroke-width="3"/>
<g filter="url(#filter1_f_42_10)">
<ellipse cx="1742.31" cy="131.822" rx="15.5" ry="39" transform="rotate(-44.6549 1742.31 131.822)" fill="white"/>
</g>
<path d="M1868.34 162.401C1839.67 52.482 1777.23 38.0386 1749.6 44.5568L1812.59 23.9097C1852.82 27.4363 1884.89 90.5512 1895.9 121.668L1868.34 162.401Z" fill="#404040" stroke="black" stroke-width="3"/>
</g>
<defs>
<filter id="filter0_f_42_10" x="172.929" y="636.277" width="72.2886" height="60.6064" filterUnits="userSpaceOnUse" color-interpolation-filters="sRGB">
<feFlood flood-opacity="0" result="BackgroundImageFix"/>
<feBlend mode="normal" in="SourceGraphic" in2="BackgroundImageFix" result="shape"/>
<feGaussianBlur stdDeviation="7.5" result="effect1_foregroundBlur_42_10"/>
</filter>
<filter id="filter1_f_42_10" x="1700.56" y="89.809" width="83.5055" height="84.026" filterUnits="userSpaceOnUse" color-interpolation-filters="sRGB">
<feFlood flood-opacity="0" result="BackgroundImageFix"/>
<feBlend mode="normal" in="SourceGraphic" in2="BackgroundImageFix" result="shape"/>
<feGaussianBlur stdDeviation="6.1" result="effect1_foregroundBlur_42_10"/>
</filter>
<linearGradient id="paint0_linear_42_10" x1="954" y1="0" x2="954" y2="1080" gradientUnits="userSpaceOnUse">
<stop stop-color="#475373"/>
<stop offset="0.085" stop-color="#434F70"/>
<stop offset="0.315" stop-color="#404C6D"/>
<stop offset="0.475" stop-color="#323F61"/>
<stop offset="0.595" stop-color="#2F3A5A"/>
<stop offset="1" stop-color="#1A1F2D"/>
</linearGradient>
<clipPath id="clip0_42_10">
<rect width="1939" height="1080" fill="white"/>
</clipPath>
</defs>
</svg>
